<?xml version="1.0" standalone="no"?>
<!DOCTYPE svg PUBLIC "-//W3C//DTD SVG 20010904//EN"
 "http://www.w3.org/TR/2001/REC-SVG-20010904/DTD/svg10.dtd">
<svg version="1.0" xmlns="http://www.w3.org/2000/svg"
 width="1024.000000pt" height="1024.000000pt" viewBox="0 0 1024.000000 1024.000000"
 preserveAspectRatio="xMidYMid meet">

<g transform="translate(0.000000,1024.000000) scale(0.100000,-0.100000)"
fill="#000000" stroke="none">
<path d="M735 5023 c-198 -17 -555 -95 -708 -155 l-27 -10 0 -248 0 -247 128
-6 c296 -15 651 -99 917 -218 21 -10 43 -15 49 -12 5 3 6 1 2 -5 -4 -7 -1 -12
6 -12 22 0 265 -137 373 -210 57 -38 106 -66 109 -63 3 4 6 2 6 -4 0 -11 136
-118 155 -122 6 -1 14 -9 18 -17 4 -8 11 -14 15 -14 5 0 32 -22 62 -50 30 -27
57 -50 61 -50 4 0 22 -15 41 -32 103 -100 242 -217 251 -211 5 3 7 2 4 -4 -8
-13 57 -76 67 -66 4 5 6 3 4 -3 -1 -6 26 -39 62 -74 36 -34 119 -115 185 -179
258 -251 471 -418 705 -550 105 -60 289 -143 300 -136 6 4 10 2 10 -3 0 -10
100 -43 112 -36 4 3 8 1 8 -4 0 -12 77 -33 245 -69 118 -25 150 -27 350 -28
222 0 525 27 525 47 0 4 10 6 23 3 13 -4 77 1 143 9 523 67 834 57 1098 -33
32 -12 62 -19 66 -16 5 3 10 2 12 -3 4 -10 149 -67 166 -65 7 0 11 -1 8 -4 -8
-9 64 -44 74 -38 6 4 10 1 10 -5 0 -6 5 -8 10 -5 6 3 10 2 10 -4 0 -12 120
-77 135 -73 5 2 7 1 3 -3 -3 -3 44 -41 105 -82 62 -42 138 -96 170 -120 32
-25 62 -41 69 -37 6 4 8 3 5 -3 -12 -20 498 -416 688 -535 317 -199 599 -300
1140 -409 234 -47 427 -96 587 -149 146 -48 358 -143 453 -202 178 -113 342
-263 425 -391 24 -37 50 -67 57 -67 21 0 15 51 -11 96 -34 60 -105 154 -116
154 -6 0 -10 5 -10 12 0 18 -127 144 -213 210 -145 111 -312 205 -512 286
-219 90 -387 152 -396 147 -5 -4 -9 -2 -9 4 0 5 -33 22 -72 37 -256 97 -641
288 -764 380 -18 13 -38 25 -45 26 -7 2 -22 12 -32 23 -10 11 -15 13 -11 6 4
-8 -8 -1 -27 16 -19 18 -73 62 -120 100 -48 37 -111 90 -140 116 -81 73 -304
293 -306 301 -3 17 -57 65 -66 59 -6 -3 -7 -2 -4 4 8 13 -57 76 -67 66 -4 -5
-6 -1 -4 7 2 8 -3 14 -10 12 -8 -1 -11 2 -8 6 7 12 -28 44 -39 35 -4 -5 -5 -3
-2 3 8 14 -17 37 -28 26 -5 -4 -5 -2 -2 4 3 6 -15 31 -41 55 -25 24 -38 33
-27 20 11 -14 -20 14 -68 62 -48 48 -92 86 -96 84 -5 -1 -18 9 -30 23 -13 14
-19 18 -15 11 4 -9 -6 -6 -24 8 -18 12 -32 26 -32 31 0 11 -180 133 -197 133
-7 0 -13 4 -13 9 0 5 -4 6 -10 3 -6 -3 -10 -2 -10 4 0 13 -75 52 -84 44 -3 -4
-6 -1 -6 6 0 7 -5 9 -10 6 -6 -3 -10 -1 -10 5 0 6 -4 8 -10 5 -5 -3 -10 -2
-10 3 0 18 -253 117 -271 106 -7 -4 -9 -3 -6 3 4 6 -3 13 -16 16 -12 3 -71 17
-132 31 -249 59 -476 68 -905 36 -300 -23 -374 -24 -575 -8 -82 7 -169 13
-192 13 -22 0 -39 4 -35 9 3 5 -11 6 -34 3 -23 -4 -33 -3 -25 2 15 10 -77 27
-116 23 -13 -2 -23 2 -23 8 0 6 -6 10 -12 9 -7 -1 -25 3 -40 9 -15 6 -39 12
-55 14 -15 2 -30 6 -33 9 -9 11 -102 39 -111 33 -5 -3 -9 0 -9 6 0 6 -4 8 -10
5 -5 -3 -10 -2 -10 3 0 9 -47 27 -62 24 -5 -1 -8 2 -8 7 0 10 -39 27 -52 23
-5 -1 -8 3 -8 9 0 5 -5 7 -10 4 -5 -3 -10 -1 -10 5 0 6 -4 9 -9 6 -5 -4 -11
-3 -13 2 -5 12 -95 62 -113 62 -8 0 -18 7 -21 15 -4 8 -10 12 -15 9 -5 -3 -9
-1 -9 4 0 12 -95 82 -110 82 -6 0 -10 4 -10 8 0 4 -21 25 -47 47 -26 21 -43
33 -38 25 4 -8 -6 1 -24 20 -18 19 -36 35 -42 35 -5 0 -9 4 -8 8 1 13 -53 67
-67 67 -7 0 -16 5 -20 12 -5 7 -2 8 7 3 8 -4 -1 8 -20 28 -19 20 -38 34 -43
31 -5 -3 -7 -2 -6 3 3 8 -105 134 -189 221 -18 18 -33 36 -35 40 -2 4 -7 6
-11 4 -5 -1 -6 2 -3 7 4 5 -4 17 -16 26 -13 8 -23 19 -23 23 0 4 -3 6 -8 4 -4
-1 -6 2 -5 6 4 12 -120 162 -133 162 -5 0 -8 4 -5 9 4 5 -7 20 -23 34 -17 14
-28 27 -25 29 2 3 -15 23 -40 46 -24 22 -42 43 -40 45 3 2 -23 28 -56 58 -33
30 -60 60 -60 67 0 7 -8 16 -19 20 -10 4 -53 44 -96 89 -43 46 -81 80 -85 78
-4 -3 -11 2 -14 11 -3 8 -11 12 -17 8 -7 -4 -9 -3 -6 3 6 10 -52 60 -65 55 -5
-1 -8 2 -8 7 0 16 -112 91 -124 84 -6 -3 -8 -3 -4 2 8 8 -53 55 -71 55 -6 0
-11 4 -11 10 0 5 -7 7 -15 4 -9 -4 -18 1 -21 10 -7 19 -58 48 -68 39 -3 -4 -6
-1 -6 5 0 16 -58 44 -72 36 -6 -4 -8 -3 -5 3 7 12 -130 76 -144 67 -5 -3 -9
-1 -9 5 0 12 -181 73 -221 75 -16 0 -29 4 -29 7 0 10 -177 42 -200 36 -11 -3
-18 -2 -15 3 10 16 -279 25 -420 13z m1870 -2083 c10 -11 16 -20 13 -20 -3 0
-13 9 -23 20 -10 11 -16 20 -13 20 3 0 13 -9 23 -20z m4456 -657 c13 -16 12
-17 -3 -4 -10 7 -18 15 -18 17 0 8 8 3 21 -13z"/>
</g>
</svg>
